<svg id="Layer_4" data-name="Layer 4" xmlns="http://www.w3.org/2000/svg" viewBox="0 0 72 92"><defs><style>.cls-1{fill:#ffd435;}.cls-1,.cls-2,.cls-3{stroke:#00205f;stroke-miterlimit:10;stroke-width:4px;}.cls-2{fill:#aabdff;}.cls-3{fill:none;}</style></defs><path class="cls-1" d="M176,168a26,26,0,1,1-6.65-17.35A26,26,0,0,1,176,168Z" transform="translate(-114 -104)"/><path class="cls-2" d="M138.67,106v38.6a26,26,0,0,0-8,6.05l-13.19-13.19a5,5,0,0,1-1.46-3.53V111a5,5,0,0,1,5-5Z" transform="translate(-114 -104)"/><path class="cls-2" d="M184,111v22.93a5,5,0,0,1-1.46,3.53l-13.19,13.19a26,26,0,0,0-8-6.05V106H179A5,5,0,0,1,184,111Z" transform="translate(-114 -104)"/><line class="cls-2" x1="24.67" y1="40.6" x2="24.67" y2="2"/><line class="cls-2" x1="47.33" y1="40.6" x2="47.33" y2="2"/><path class="cls-3" d="M138.67,106" transform="translate(-114 -104)"/><path class="cls-3" d="M161.33,106" transform="translate(-114 -104)"/><line class="cls-3" x1="24.67" y1="2" x2="47.33" y2="2"/></svg>